<?xml version="1.0" encoding="utf-8"?>

<!-- The icon can be used freely in both personal and commercial projects with no attribution required, but always appreciated. 
You may NOT sub-license, resell, rent, redistribute or otherwise transfer the icon without express written permission from iconmonstr.com -->

<!DOCTYPE svg PUBLIC "-//W3C//DTD SVG 1.1//EN" "http://www.w3.org/Graphics/SVG/1.1/DTD/svg11.dtd">
<svg version="1.1" xmlns="http://www.w3.org/2000/svg" xmlns:xlink="http://www.w3.org/1999/xlink" x="0px" y="0px"
	 width="512px" height="512px" viewBox="0 0 512 512" enable-background="new 0 0 512 512" xml:space="preserve">
<path id="map-4-icon" d="M362.552,284.527c-0.498-0.865,3.693-0.672,3.689-0.656C365.912,285.633,363.832,286.734,362.552,284.527
	C362.514,284.463,362.609,284.629,362.552,284.527z M343.871,257.861c-0.461,0.119,1.013-0.217,0.936-0.273
	c0.576,0.41-0.614,0.854-0.44,1.178c0.694,1.309,0.187,2.156,0.075,2.879c-0.128,0.816-0.899,0.373-1.294,0.811
	c-0.488,0.537,2.237,0.658,2.261,0.734c0.107,0.297-3.237,0.746-2.638,1.488c0.11,0.139,6.591-0.506,6.578-0.773
	c0-0.186-0.697-0.688-0.435-0.758c2.39-0.652-0.052-1.242-0.837-1.648c-0.097-0.389,0.681-2.059-0.659-1.879
	c-0.146,0.047-0.126-1.279-0.15-1.373c-0.212-0.846-0.085-1.601,0.388-2.263c0.169-0.236-1.612-0.767-1.415-0.391
	c-0.255-0.405,0.959-0.6,0.763-0.882C345.188,252.115,343.878,257.852,343.871,257.861
	C343.871,257.861,344.062,257.6,343.871,257.861z M462,317.77c0,60.422-48.981,109.404-109.407,109.404
	c-60.422,0-109.403-48.982-109.403-109.404c0-60.423,48.981-109.405,109.403-109.405C413.019,208.364,462,257.347,462,317.77z
	 M384.653,271.143c-0.011-0.322,0.92-0.537,0.303-0.951c-3.79-2.564-4.128,3.629-5.207,5.516c-0.848,1.512,4.777,3.047,4.92,1.537
	c0.588-2.645,5.057-0.498,6.491-0.369c2.089,0.191,7.565-1.498,2.901-3.188c-3.091-1.113-4.744-2.359-5-4.525
	c0.002,0.012,1.628-1.549,0.922-1.449c-0.743,0.088-2.649,1.16-3.074,1.584C388.586,268.074,384.758,276.311,384.653,271.143
	C384.645,270.885,384.655,271.244,384.653,271.143z M436.202,294.922c-2.321-7.086-9.608-1.189-14.031-0.236
	c-2.036,0.441-2.812-3.406-4.354-0.584c-1.214,2.219-6.446-3.246-7.152-4.012c-3.794,0,2.355,7.492,4.268,8.703
	c1.223,0.771,0.813-0.012,2.107-0.195c-0.034,0.006,2.457-1.748,2.255-1.707c0.302-0.062,2.289,0.721,2.694,0.699
	c3.396-0.162,2.698,6.68,1.332,8.135c-0.655,0.697-1.228,4.135-2.173,4.143c-1.549,0.012-4.982,5.564-6.51,6.752
	c-8.539,6.643-4.307-1.178-10.385-5.912c-2.527-1.971-2.981-6.205-5.421-7.586c-1.392-0.781-6.021-6.176-5.968-7.061
	c0.109,0.508,0.065,0.984-0.143,1.438c-0.82,0.629-2.561-2.322-2.744-2.789c-0.557,1.674,4.569,7.236,5.46,8.572
	c2.257,3.373,3.496,8.178,6.065,11.082c1.455,1.648,3.328,2.746,5.076,4.035c1.803,1.328,1.884,4.541,4.426,4.32
	c1.482-0.133,7.031-3.963,7.906-3.76c2.878,0.664-4.445,16.682-5.543,17.695c-2.9,2.684-4.536,5.826-6.652,9.104
	c-2.957,4.58-2.796,5.15-2.115,10.088c0.397,2.877,1.507,8.26-0.946,10.57c-2.378,2.244-6.78,3.668-7.897,7.023
	c-1.355,4.072-0.551,3.482-3.92,5.973c-1.621,1.201-1.6,2.994-3.131,4.508c-5.151,5.1-9.203,4.373-15.253,6.961
	c-3.44,1.467-8.708-7.148-8.377-9.979c0.48-4.107-5.613-7.248-4.807-10.334c0.673-2.578,1.435-3.943,3.038-5.883
	c1.025-1.238-1.119-6.836-1.692-8.021c-1.422-2.943-2.831-3.416-4.874-5.701c-1.648-1.844-0.032-4.678,0.497-7.141
	c0.537-3.221-2.224-3.547-4.607-3.129c-3.904,0.688-2.583-4.072-5.831-3.852c-3.183,0.223-6.806,3.893-10.02,2.711
	c-6.785-2.562-12.84-1.346-17.283-8.15c-1.008-1.543-4.212-10.746-3.554-12.924c0.13-1.861,1.368-3.67,1.662-5.52
	c0.571-1.947-0.995-4.77-0.338-6.238c0.776-1.732,5.342-9.67,7.947-9.67c5.833,0.66,5.909-8.141,10.89-9.938
	c0.733-0.596,7.377-0.869,9.111-1.158c2.696-0.447,13.935-2.838,14.622,0.236c0.141,0.635,0.276,4.205-0.61,4.051
	c2.069,0.102,6.263,1.828,7.605,3.434c4.757,5.732,5.686-3.1,8.689-2.676c4.23,0.6,7.025,1.904,11.952,1.826
	c7.46-0.117,5.216-10.098,2.933-9.146c-2.046,0.854-7.92,2.336-9.58-0.445c-1.021-1.703-2.709-2.961-0.433-4.619
	c-1.562,1.152-3.003-0.273-4.686,0.938c-0.955,0.691,0.152,1.809-0.567,2.074c-2.111,0.785-3.958-0.521-4.219-2.762
	c-0.224-1.873-2.719-2.537-4.067-3.521c-0.168-0.123-5.972-3.641-5.125-2.109c0.554,0.992,4.581,4.643,4.615,4.947
	c-0.157-1.451,3.958,3.795,2.837,2.789c-0.858-0.783-2.664-0.395-1.525,0.168c1.361,0.641-0.951,2.725-1.18,2.33
	c-0.476-0.807,0.795-1.184,0.061-2.318c-0.47-0.939-1.74-1.164-2.377-1.961c-0.997-1.229-4.75-5.291-6.425-5.215
	c-1.083,0.441-2.118,0.975-3.108,1.602c-1.192,0.684-1.965-0.926-3.15-0.457c-1.522,0.607-1.269,2.633-3.42,3.518
	c-0.624,0.26-3.134,1.682-2.771,2.863c1.027,3.279-5.199,3.188-6.756,3.65c0.012-0.002-3.981-1.291-4.265-1.836
	c-1.249-2.455,1.557-4.793,1.605-7.51c0.082-4.455,7.626,1.312,9.412-0.977c1.807-2.309,0.905-6.082-2.271-6.426
	c0.604,0.061,6.046-2.098,6.932-3.125c0.771-0.889,3.967-3.668,5.204-3.789c4.244-0.391,1.08-3.863,4.146-5.395
	c0.629,0.263,0.464,1.5,0.175,1.889c-1.974,2.189,0.416,1.146,0.584,2.508c-0.241-0.717,3.988,0.43,4.246,0.291
	c1.726-0.916,3.812,0.189,4.954-1.676c0.402-0.654-0.33-3.69,0.996-3.094c0.3,0.136,3.964-4.745,4.274-3.581
	c-0.407-1.484-3.719,0.637-4.799,0.552c-2.809-0.226-1.493-4.542-0.53-5.774c0.652-0.823-2.157-2.33-2.133,0.136
	c0.012,1.357-1.581,1.923-1.778,3.608c-0.171,1.518-0.562,3.647-0.315,5.183c0.947,5.854-6.322-1.341-6.551-1.243
	c-1.754,0.753-3.927,0.701-4.06-1.962c-0.146-2.915,3.759-3.366,5.363-4.888c1.604-1.521,2.31-3.916,4.066-5.394
	c4.755-3.998,5.772-0.793,10.544-0.356c1.186,0.11,4.433,2.317,1.738,2.247c-3.57-0.094,3.091,3.236,2.198,2.252
	c-0.438-0.156-0.841-0.377-1.207-0.665c0.063-0.596,1.426,0.247,1.735-0.162c0.173-0.226,0.367-3.254,1.812-2.763
	c-1.349-0.461,4.429-3.416,4.396-3.381c2.38-2.627-9.269-5.665-11.094-6.126c-4.49-1.134-9.071-1.904-13.688-2.305
	c-4.336-0.378-6.251,2.425-9.665,4.71c-2.974,1.99-9.73,6.072-13.606,4.725c-0.96-0.333-6.023,1.84-6.367,1.265
	c-0.104-0.165,0.738-0.526,0.626-0.533c-3.912-0.232-6.537,4.916-9.95,5.054c-2.141,0.089,2.533-7.411,3.273-5.995
	c-1.535-2.932,8.723-3.427,9.204-6.156c0.056-0.401-1.021,0.439-1.204,0.114c-0.416-0.762,2.535-0.444,2.309-1.344
	c-0.674-2.646-11.607,4.174-13.428,4.43c0.116-0.101,1.102-1.179,1.14-1.162c-1.468-0.635-3.016,2.729-4.184,2.41
	c-0.352-0.095,0.144-0.841,0.296-0.969c-0.965,0.965-7.873,2.845-7.044,4.186c0.515,0.776,2.589,0.811-0.146,2.538
	c-2.432,1.535-2.282,5.883-4.683,6.954c-0.495,0.332-9.49-0.552-9.144,0.139c-0.186-0.372,4.989,1.049,0.882,1.049
	c-0.517,0.088-0.805,3.298-2.535,3.197c-3.233-0.187-6.181,1.873-8.15,4.084c-9.777,10.965-16.688,24.379-19.888,38.719
	c-0.345,1.486-0.622,2.984-0.877,4.49c-0.106,0.648,1.79,0.73,1.983,1.766c0.172,1.004,1.589-0.119,1.69,1.545
	c0.105,1.811-0.055,2.926,0.446,4.74c1.346,4.9,3.182,6.525,5.965,10.73c1.217,1.842,2.558,3.875,3.154,6.033
	c0.29,1.057,1.08,4.996,0.785,5.971c0.917-1.49,8.876,6.623,10.311,8.273c3.823,4.398,7.334,9.602,1.032,14.135
	c-0.043,0.031,1.314,13.256-0.416,12.014c-1.309-0.934-3.859,1.15-4.628,2.102c-0.917,1.139,1.546,6.08,2.507,7.088
	c15.789,16.51,38.031,26.801,62.681,26.801c47.897,0,86.722-38.828,86.722-86.721C439.314,310.271,438.148,300.852,436.202,294.922z
	 M339.775,262.5c1.108-0.48,4.773-2.457,3.434-3.98c-1.385-1.573-4.813,2.576-4.571,3.9
	C338.976,262.76,339.354,262.789,339.775,262.5C340.133,262.346,339.381,262.672,339.775,262.5z M214.248,321.918l-62.125,40.863
	V162.672l70.237-36.425v140.751c3.396-8.385,7.614-16.432,12.609-24.047V126.247l72.001,36.425v24.2
	c4.333-1.484,8.744-2.755,13.223-3.807v-21.001l65.977-33.393v54.672c9.131,2.229,17.986,5.363,26.448,9.367V84.826l-99.624,51.135
	l-84.33-42.899l-82.566,42.899L50,84.826v259.002l96.098,54.859l72.234-47.658C215.975,341.588,214.604,331.842,214.248,321.918z
	 M138.897,364.225l-62.449-35.822v-199.73l62.449,33.393V364.225z"/>
</svg>
