<?xml version="1.0" encoding="utf-8"?>

<!-- The icon can be used freely in both personal and commercial projects with no attribution required, but always appreciated. 
You may NOT sub-license, resell, rent, redistribute or otherwise transfer the icon without express written permission from iconmonstr.com -->

<!DOCTYPE svg PUBLIC "-//W3C//DTD SVG 1.1//EN" "http://www.w3.org/Graphics/SVG/1.1/DTD/svg11.dtd">
<svg version="1.1" xmlns="http://www.w3.org/2000/svg" xmlns:xlink="http://www.w3.org/1999/xlink" x="0px" y="0px"
	 width="512px" height="512px" viewBox="0 0 512 512" enable-background="new 0 0 512 512" xml:space="preserve">
<path id="coin-5-icon" d="M209.306,156.03c70.946,0,128.372,57.414,128.372,128.372c0,70.945-57.414,128.371-128.372,128.371
	c-70.944,0-128.372-57.414-128.372-128.371C80.934,213.456,138.349,156.03,209.306,156.03 M209.306,125.097
	C121.324,125.097,50,196.421,50,284.402c0,87.982,71.324,159.305,159.306,159.305c87.982,0,159.306-71.322,159.306-159.305
	C368.611,196.421,297.288,125.097,209.306,125.097L209.306,125.097z M223.296,355.342v17.645h-25.245v-15.781
	c-12.117-1.037-28.117-5.43-39.907-11.926l8.354-29.094c13.35,5.207,32.828,11.756,47.231,8.611
	c12.599-2.748,15.773-14.061,0.945-20.449c-12.523-5.625-55.623-11.504-55.623-47.549c0-14.934,11.192-35.457,39-41.527v-17.907
	h25.245v16.434c10.819,0.743,21.854,2.741,34.6,6.728c-1.275,5.567-6.784,29.732-6.784,29.732
	c-8.801-2.995-23.186-8.23-36.996-7.454c-17.063,0.959-18.286,13.42-6.782,19.173c23.598,10.672,57.775,19.746,57.775,51.572
	C265.142,338.145,245.979,352.152,223.296,355.342z M282.376,70.581c8.602-1.499,17.447-2.288,26.478-2.288
	C393.434,68.293,462,136.86,462,221.441c0,34.194-11.211,65.766-30.151,91.254c5.924-18.416,8.933-37.598,8.933-57.231
	c0-76.686-46.316-143.623-114.241-172.354C312.308,77.09,297.532,72.908,282.376,70.581z M209.308,101.199
	c24.722,0,48.716,4.848,71.317,14.407c66.517,28.135,111.885,93.687,111.885,168.796c0,24.723-4.848,48.719-14.407,71.32
	c-1.431,3.379-2.967,6.699-4.586,9.971c26.701-29,43.02-67.703,43.02-110.229c0-89.923-72.896-162.818-162.816-162.818
	c-18.45,0-36.176,3.088-52.708,8.746C203.768,101.27,206.532,101.199,209.308,101.199z"/>
</svg>
