<svg xmlns="http://www.w3.org/2000/svg" fill="#3A93EA" width="32" height="32" viewBox="0 0 32 32"><path d="M7 0C3.686 0 1 3.134 1 7c0 3.31 1.97 6.083 4.616 6.812l-.993 16.19C4.556 31.103 5.4 32 6.5 32h1c1.1 0 1.946-.9 1.88-1.997l-.994-16.19c2.646-.73 4.616-3.503 4.616-6.813 0-3.866-2.686-7-6-7zm20.167 0L25.5 10h-1.25l-.833-10h-.833l-.833 10H20.5L18.835 0H18v13c0 .552.45 1 1 1h2.605l-.982 16.004C20.556 31.102 21.4 32 22.5 32h1c1.1 0 1.946-.898 1.88-1.996L24.396 14H27c.553 0 1-.448 1-1V0h-.832z"/></svg>