<svg xmlns="http://www.w3.org/2000/svg" width="512" height="512" viewBox="0 0 512 512"><path d="M362.552 284.527c-.498-.865 3.693-.672 3.69-.656-.33 1.763-2.41 2.864-3.69.657-.038-.064.057.102 0 0zm-18.68-26.666c-.462.12 1.012-.216.935-.272.576.41-.614.854-.44 1.178.694 1.31.187 2.156.075 2.88-.128.815-.9.372-1.294.81-.488.537 2.237.658 2.26.734.108.297-3.236.746-2.637 1.488.11.14 6.592-.506 6.58-.773 0-.186-.698-.688-.436-.758 2.39-.652-.052-1.242-.837-1.648-.097-.39.68-2.06-.66-1.88-.145.047-.125-1.28-.15-1.373-.21-.846-.084-1.6.39-2.263.168-.236-1.613-.767-1.416-.39-.254-.406.96-.6.764-.883-1.816-2.595-3.126 3.142-3.133 3.15 0 0 .192-.26 0 0zM462 317.77c0 60.422-48.98 109.404-109.407 109.404-60.422 0-109.403-48.982-109.403-109.404 0-60.423 48.98-109.405 109.403-109.405C413.02 208.365 462 257.347 462 317.77zm-77.347-46.627c-.01-.322.92-.537.303-.95-3.79-2.565-4.128 3.628-5.207 5.515-.85 1.512 4.776 3.047 4.92 1.537.587-2.645 5.056-.498 6.49-.37 2.09.192 7.565-1.497 2.9-3.187-3.09-1.113-4.743-2.36-5-4.525.003.012 1.63-1.55.923-1.45-.743.09-2.65 1.16-3.074 1.585 1.676-1.224-2.152 7.013-2.257 1.845-.008-.258.002.1 0 0zm51.55 23.78c-2.322-7.087-9.61-1.19-14.032-.237-2.035.44-2.81-3.406-4.353-.584-1.214 2.22-6.446-3.246-7.152-4.012-3.794 0 2.355 7.492 4.268 8.703 1.223.77.813-.012 2.107-.195-.034.006 2.457-1.748 2.255-1.707.302-.06 2.29.722 2.694.7 3.395-.162 2.697 6.68 1.33 8.135-.654.697-1.227 4.135-2.172 4.143-1.55.012-4.982 5.564-6.51 6.752-8.54 6.643-4.307-1.178-10.385-5.912-2.527-1.97-2.98-6.205-5.42-7.586-1.393-.78-6.022-6.176-5.97-7.06.11.507.066.983-.142 1.437-.82.628-2.56-2.323-2.743-2.79-.557 1.674 4.57 7.236 5.46 8.572 2.257 3.373 3.496 8.178 6.065 11.082 1.455 1.648 3.328 2.746 5.076 4.035 1.803 1.327 1.884 4.54 4.426 4.32 1.482-.134 7.03-3.964 7.906-3.76 2.878.663-4.445 16.68-5.543 17.694-2.9 2.684-4.536 5.826-6.652 9.104-2.957 4.58-2.796 5.15-2.115 10.088.397 2.877 1.507 8.26-.946 10.57-2.378 2.244-6.78 3.668-7.897 7.023-1.355 4.07-.55 3.48-3.92 5.972-1.62 1.2-1.6 2.994-3.13 4.508-5.152 5.1-9.204 4.373-15.254 6.96-3.44 1.468-8.708-7.147-8.377-9.978.48-4.107-5.613-7.248-4.807-10.334.672-2.578 1.434-3.943 3.037-5.883 1.025-1.238-1.12-6.836-1.692-8.02-1.422-2.944-2.83-3.417-4.874-5.702-1.647-1.844-.03-4.678.498-7.14.537-3.222-2.224-3.548-4.607-3.13-3.903.688-2.582-4.072-5.83-3.852-3.183.224-6.806 3.894-10.02 2.712-6.785-2.562-12.84-1.346-17.283-8.15-1.008-1.543-4.212-10.746-3.554-12.924.13-1.86 1.368-3.67 1.662-5.52.57-1.947-.995-4.77-.338-6.238.776-1.732 5.342-9.67 7.947-9.67 5.833.66 5.91-8.14 10.89-9.938.733-.596 7.377-.87 9.11-1.158 2.697-.447 13.936-2.838 14.623.236.14.635.276 4.205-.61 4.05 2.07.103 6.263 1.83 7.605 3.435 4.757 5.732 5.686-3.1 8.69-2.676 4.23.6 7.024 1.903 11.95 1.825 7.46-.117 5.217-10.098 2.934-9.146-2.046.853-7.92 2.335-9.58-.446-1.02-1.703-2.71-2.96-.433-4.62-1.562 1.153-3.003-.272-4.686.94-.955.69.152 1.808-.567 2.073-2.11.785-3.958-.52-4.22-2.762-.223-1.873-2.718-2.537-4.066-3.52-.168-.124-5.972-3.642-5.125-2.11.553.992 4.58 4.643 4.614 4.947-.157-1.45 3.958 3.795 2.837 2.79-.857-.784-2.663-.396-1.524.167 1.36.64-.95 2.724-1.18 2.33-.476-.808.795-1.185.06-2.32-.47-.938-1.74-1.163-2.376-1.96-.997-1.23-4.75-5.29-6.425-5.215-1.083.44-2.118.975-3.108 1.602-1.192.684-1.965-.926-3.15-.457-1.522.607-1.27 2.633-3.42 3.518-.624.26-3.134 1.682-2.77 2.863 1.026 3.28-5.2 3.19-6.757 3.65.012 0-3.98-1.29-4.265-1.835-1.25-2.455 1.557-4.793 1.605-7.51.082-4.455 7.626 1.312 9.412-.977 1.807-2.31.905-6.082-2.27-6.426.603.06 6.045-2.098 6.93-3.125.772-.89 3.968-3.668 5.205-3.79 4.244-.39 1.08-3.862 4.146-5.394.63.263.464 1.5.175 1.89-1.974 2.188.416 1.145.584 2.507-.24-.717 3.988.43 4.246.29 1.726-.915 3.812.19 4.954-1.675.402-.654-.33-3.69.996-3.094.3.137 3.964-4.744 4.274-3.58-.407-1.484-3.72.637-4.8.552-2.808-.226-1.492-4.542-.53-5.774.653-.823-2.156-2.33-2.132.136.012 1.357-1.58 1.923-1.778 3.608-.17 1.518-.562 3.647-.315 5.183.947 5.854-6.322-1.34-6.55-1.243-1.755.753-3.928.7-4.06-1.962-.147-2.915 3.758-3.366 5.362-4.888 1.603-1.52 2.31-3.916 4.065-5.394 4.755-3.998 5.772-.793 10.544-.356 1.185.11 4.432 2.317 1.737 2.247-3.57-.095 3.09 3.235 2.198 2.25-.438-.155-.84-.376-1.207-.664.063-.596 1.426.247 1.735-.162.173-.226.367-3.254 1.812-2.763-1.35-.46 4.43-3.415 4.396-3.38 2.38-2.627-9.268-5.665-11.093-6.126-4.49-1.134-9.07-1.904-13.688-2.305-4.337-.38-6.252 2.424-9.666 4.71-2.974 1.99-9.73 6.07-13.606 4.724-.96-.333-6.023 1.84-6.367 1.265-.103-.166.74-.527.627-.534-3.912-.232-6.537 4.916-9.95 5.054-2.14.09 2.533-7.41 3.273-5.995-1.535-2.932 8.723-3.427 9.204-6.156.056-.402-1.02.438-1.204.113-.416-.762 2.535-.444 2.31-1.344-.675-2.647-11.608 4.173-13.43 4.43.117-.102 1.103-1.18 1.14-1.163-1.467-.635-3.015 2.73-4.183 2.41-.352-.095.144-.84.296-.97-.965.966-7.873 2.846-7.044 4.187.514.776 2.588.81-.147 2.538-2.432 1.535-2.282 5.883-4.683 6.954-.495.332-9.49-.552-9.144.14-.186-.373 4.99 1.048.882 1.048-.517.088-.805 3.298-2.535 3.197-3.233-.186-6.18 1.874-8.15 4.085-9.777 10.965-16.688 24.38-19.888 38.72-.345 1.485-.622 2.983-.877 4.49-.106.647 1.79.73 1.983 1.765.173 1.004 1.59-.12 1.69 1.545.106 1.81-.054 2.926.447 4.74 1.346 4.9 3.182 6.525 5.965 10.73 1.217 1.842 2.558 3.875 3.154 6.033.29 1.057 1.08 4.996.785 5.97.918-1.49 8.877 6.624 10.312 8.274 3.823 4.398 7.334 9.602 1.032 14.135-.043.03 1.314 13.256-.416 12.014-1.31-.933-3.86 1.15-4.628 2.103-.917 1.14 1.546 6.08 2.507 7.088 15.79 16.51 38.03 26.802 62.68 26.802 47.898 0 86.723-38.828 86.723-86.72.004-7.5-1.162-16.92-3.108-22.85zM339.774 262.5c1.108-.48 4.773-2.457 3.434-3.98-1.386-1.573-4.814 2.576-4.572 3.9.338.34.716.37 1.137.08.358-.154-.394.172 0 0zm-125.527 59.418l-62.125 40.863V162.673l70.237-36.425v140.75c3.396-8.384 7.614-16.43 12.61-24.046V126.248l72 36.425v24.2c4.333-1.484 8.744-2.755 13.223-3.807v-21l65.977-33.394v54.673c9.13 2.23 17.986 5.363 26.448 9.367V84.826l-99.624 51.135-84.33-42.898-82.566 42.9L50 84.825v259.002l96.098 54.86 72.234-47.66c-2.357-9.44-3.728-19.186-4.084-29.11zm-75.35 42.307l-62.45-35.822v-199.73l62.45 33.393v202.16z"/></svg>