<svg xmlns="http://www.w3.org/2000/svg" width="512" height="512" viewBox="0 0 512 512"><path d="M209.306 156.03c70.946 0 128.372 57.414 128.372 128.372 0 70.945-57.414 128.37-128.372 128.37-70.944 0-128.372-57.413-128.372-128.37 0-70.946 57.415-128.372 128.372-128.372m0-30.933C121.324 125.097 50 196.42 50 284.402c0 87.982 71.324 159.305 159.306 159.305 87.982 0 159.306-71.322 159.306-159.305 0-87.98-71.324-159.305-159.306-159.305zm13.99 230.245v17.645H198.05v-15.78c-12.116-1.038-28.116-5.43-39.906-11.927l8.354-29.094c13.35 5.207 32.828 11.756 47.23 8.61 12.6-2.747 15.774-14.06.946-20.448-12.523-5.625-55.623-11.504-55.623-47.55 0-14.933 11.193-35.456 39-41.526v-17.907h25.246V213.8c10.82.742 21.854 2.74 34.6 6.727-1.275 5.567-6.784 29.732-6.784 29.732-8.8-2.996-23.186-8.23-36.996-7.455-17.063.96-18.286 13.42-6.782 19.173 23.598 10.672 57.775 19.746 57.775 51.572.032 24.595-19.13 38.602-41.814 41.792zm59.08-284.76c8.602-1.5 17.447-2.29 26.478-2.29 84.58 0 153.146 68.568 153.146 153.15 0 34.193-11.21 65.765-30.15 91.253 5.923-18.416 8.932-37.598 8.932-57.23 0-76.687-46.316-143.624-114.24-172.355-14.234-6.02-29.01-10.202-44.166-12.53zm-73.068 30.617c24.722 0 48.716 4.847 71.317 14.406 66.517 28.135 111.885 93.687 111.885 168.796 0 24.723-4.848 48.72-14.407 71.32-1.43 3.38-2.967 6.7-4.586 9.97 26.7-29 43.02-67.702 43.02-110.228 0-89.923-72.896-162.818-162.816-162.818-18.45 0-36.175 3.088-52.707 8.746 2.755-.122 5.52-.193 8.295-.193z"/></svg>