<svg xmlns="http://www.w3.org/2000/svg" width="97.108" height="97.108" viewBox="0 0 97.108 97.108"><path d="M47.742 50.5c-7.557 0-14.04 2.774-19.267 8.247-7.376 7.725-9.636 17.947-9.548 19.862.186 4.023 1.796 7.21 4.532 8.97.945.608 1.953.916 2.997.916 2.522 0 5.288-1.704 8.49-3.675.43-.263.925-.603 1.48-.98C39.072 82.03 43.066 79.3 47.35 79.3c4.635 0 9.582 3.363 12.242 5.17l.825.555c2.972 1.958 5.77 3.8 8.265 3.8.93 0 1.838-.25 2.702-.743 3.208-1.822 5.293-4.13 5.052-9.484-.25-5.578-6.14-28.1-28.694-28.1zM33.374 43.317c.418 0 .838-.03 1.26-.087 6.943-.96 11.512-9.56 10.184-19.17-1.223-8.848-7.26-15.777-13.744-15.777-.418 0-.84.03-1.262.087-3.27.452-6.136 2.638-8.07 6.154-2.017 3.666-2.767 8.29-2.113 13.02 1.222 8.844 7.26 15.773 13.744 15.773zM8.505 36.854c-.62 0-1.24.078-1.846.233-5.262 1.35-7.93 8.08-6.07 15.324 1.623 6.325 6.085 10.742 10.854 10.742.62 0 1.24-.078 1.845-.233 5.26-1.35 7.928-8.08 6.07-15.324-1.622-6.325-6.086-10.742-10.855-10.742zM62.474 43.23c6.972.96 13.704-6.274 15.006-15.69.653-4.728-.097-9.352-2.112-13.018-1.936-3.516-4.8-5.702-8.07-6.154-.422-.058-.844-.087-1.262-.087-6.483 0-12.52 6.93-13.744 15.778-1.33 9.612 3.24 18.212 10.182 19.17zM90.45 37.087c-.606-.155-1.228-.233-1.848-.233-4.77 0-9.23 4.417-10.854 10.742-1.857 7.243.81 13.973 6.07 15.323.605.154 1.226.232 1.846.232 4.77 0 9.23-4.416 10.853-10.74 1.86-7.245-.808-13.975-6.068-15.325z"/></svg>