<svg xmlns="http://www.w3.org/2000/svg" width="512" height="512" viewBox="0 0 512 512"><path d="M256 90c49.902 0 90.5 40.598 90.5 90.5 0 57.58-60.042 151.583-90.5 202.867-51.55-86.8-90.5-153.13-90.5-202.867 0-49.902 40.598-90.5 90.5-90.5m0-40c-72.072 0-130.5 58.427-130.5 130.5 0 72.073 57.113 155.833 130.5 281.5 73.387-125.666 130.5-209.427 130.5-281.5C386.5 108.427 328.074 50 256 50zm0 83.938c-25.072 0-45.397 20.325-45.397 45.396S230.928 224.73 256 224.73s45.396-20.324 45.396-45.396-20.324-45.396-45.396-45.396z"/></svg>