<svg xmlns="http://www.w3.org/2000/svg" width="283.218" fill="#3A93EA" height="283.218" viewBox="0 0 283.218 283.218"><path d="M275.96 103.693L145.48 29.59c-4.486-2.558-10.003-2.5-14.432.156l-124.06 74.11c-6.798 4.063-9.02 12.86-4.957 19.656 4.063 6.8 12.866 9.024 19.66 4.957L138.58 58.646l123.22 69.98c2.236 1.27 4.668 1.877 7.062 1.877 4.99 0 9.844-2.614 12.48-7.264 3.92-6.883 1.503-15.634-5.38-19.547z"/><path d="M119.75 127.633c-1.36-1.42-3.125-2.206-4.96-2.206-10.945 0-14.548 12.89-14.95 20.51-.143 2.744 1.965 5.092 4.713 5.24 2.787.15 5.1-1.97 5.24-4.718.14-2.67 1.296-8.392 3.44-10.37 2.024 6.1 2.967 23.992 2.99 44.248-.186.518-.305 1.078-.305 1.666 0 .583.12 1.12.3 1.647-.018 4.883-.095 9.853-.21 14.818 3.385.72 7.097.3 10.03-1.325.083-3.248.15-6.618.188-10.155h32.61c-.024 2.875-.09 5.777-.147 8.676.933.443 1.86.863 2.785 1.39 2.1 1.21 4.625 1.79 7.15 1.774.304-11.635.448-26.06-.154-39.003.207-.54.333-1.12.333-1.735 0-.798-.206-1.545-.537-2.217-.812-13.512-2.544-24.743-5.89-28.23-1.358-1.422-3.122-2.204-4.957-2.204-10.95 0-14.543 12.887-14.947 20.51-.143 2.74 1.965 5.09 4.713 5.237 2.803.15 5.095-1.97 5.24-4.718.14-2.67 1.296-8.393 3.438-10.37 1.022 3.067 1.764 9.17 2.254 17.01h-32.662c-.873-12.27-2.59-22.23-5.706-25.477zm38.828 35.427c.15 4.4.237 9.073.27 13.955h-32.582c-.02-4.672-.11-9.386-.278-13.955h32.59z"/><path d="M80.44 200.87c-3.22 1.86-6.904 2.84-10.65 2.84-3.96 0-7.17 3.212-7.17 7.17 0 3.953 3.21 7.17 7.17 7.17 6.255 0 12.416-1.648 17.81-4.753 4.89-2.823 8.876-2.813 13.767 0 10.79 6.217 24.827 6.217 35.622 0 4.888-2.823 8.876-2.813 13.762 0 11.1 6.395 25.566 6.193 36.506-.527 5.082-3.122 8.508-3.122 13.586.005 5.62 3.45 12.083 5.278 18.69 5.278 3.964 0 7.17-3.21 7.17-7.168s-3.206-7.17-7.17-7.17c-3.956 0-7.83-1.096-11.186-3.15-9.76-6-18.84-5.996-28.596-.004-6.538 4.02-15.224 4.142-21.847.314-9.31-5.362-18.76-5.367-28.077 0-6.445 3.715-14.867 3.715-21.305 0-9.318-5.368-18.767-5.373-28.082-.005z"/><path d="M48.317 219.696c0-3.958-3.206-7.17-7.168-7.17s-7.17 3.212-7.17 7.17c0 19.74 16.062 35.806 35.81 35.806 6.255 0 12.416-1.647 17.81-4.75 4.89-2.82 8.876-2.82 13.767 0 10.79 6.215 24.827 6.215 35.622 0 4.888-2.82 8.876-2.82 13.762 0 11.1 6.393 25.566 6.192 36.506-.528 5.082-3.118 8.508-3.118 13.586.005 5.62 3.452 12.083 5.277 18.69 5.277 19.748 0 35.812-16.064 35.812-35.806 0-3.957-3.206-7.168-7.168-7.168-3.963 0-7.17 3.21-7.17 7.17 0 11.834-9.632 21.467-21.473 21.467-3.957 0-7.83-1.098-11.187-3.15-9.76-6.002-18.84-5.998-28.596-.005-6.538 4.018-15.224 4.14-21.847.312-9.31-5.358-18.76-5.358-28.077 0-6.445 3.715-14.867 3.715-21.305 0-9.31-5.358-18.762-5.358-28.077 0-3.22 1.862-6.905 2.842-10.653 2.842-11.847-.006-21.476-9.643-21.476-21.474z"/></svg>