<svg xmlns="http://www.w3.org/2000/svg" width="465.086" fill="#3A93EA" height="465.086" viewBox="0 0 465.086 465.086"><path d="M464.985 326.143c0 12.9-12.2 25.1-25.1 25.1-16.5 0-26.3 8-40.4 20.8-14.1 12.8-33 33-63.6 33s-49.6-20.2-63.6-33c-14.1-12.9-23.3-20.8-39.8-20.8-16.5 0-25.7 8-39.8 20.8-14.1 12.8-33 33-63.6 33s-49.6-20.2-63.6-33c-14.1-12.9-23.3-20.8-39.8-20.8-12.9 0-25.1-11.6-25.1-25.1s12.2-25.1 25.1-24.5c34.3 0 58.1 19.6 73.4 33.7 15.3 14.1 23.3 20.2 30.6 20.2 7.3 0 14.7-6.1 30-20.2s39.2-33.7 73.4-33.7 57.5 19.6 73.4 33.7c15.3 14.1 23.3 20.2 30.6 20.2s14.7-6.1 30-20.2 39.2-33.7 73.4-33.7c12.3-.6 24.5 11.7 24.5 24.5zm-440-216.6c16.5 0 25.7 7.3 39.8 20.2 14.1 12.9 33 33 63.6 33h5.5c27.5-2.4 44.7-20.8 58.1-33 12.2-11 20.8-18.4 34.3-20.2 1.8 0 3.7-.6 6.1-.6 16.5 0 25.7 7.3 39.8 20.2 3.7 3.1 7.3 6.7 11.602 11 12.9 11 28.8 22.6 52 22.6h5.5c27.5-2.4 44.7-20.8 58.1-33 12.2-11 20.8-18.4 34.3-20.2 1.8 0 3.7-.6 6.1-.6 3.1 0 6.7-.6 9.2-1.8 1.2-.6 3.1-1.2 4.3-2.4 6.7-4.3 11.6-12.2 11.6-20.2 0-3.1-.6-6.7-1.8-9.2-1.2-3.1-3.1-5.5-5.5-8-1.2-1.2-2.4-2.4-3.7-3.1-1.2-.6-2.4-1.8-4.3-2.4-1.8-.6-3.1-1.2-4.9-1.2-1.8-.6-3.1-.6-4.898-.6h-6.102c-30.6 2.4-52.6 19.6-67.3 33-13.5 12.2-20.8 19-27.5 20.2-1.2 0-1.8.6-2.4.6-1.8 0-3.7-.6-5.5-1.2-3.7-1.8-8.6-4.9-14.1-10.4-3.1-2.4-6.7-5.5-10.4-9.2-15.3-14.1-39.2-33-73.4-33h-6.1c-30.6 2.4-52.6 19.6-67.3 33-13.5 12.2-20.8 19-27.5 20.2-1.2 0-1.8.6-2.4.6-1.8 0-3.7-.6-5.5-1.2s-4.3-2.4-6.7-3.7c-4.9-3.1-10.4-8.6-18.4-15.3-15.3-14.1-39.2-33-73.4-33h-2.4c-12.9.6-24.5 12.9-23.3 25.7-.802 12.8 11.998 23.8 24.898 23.2zm414.3 71h-6.1c-30.6 2.4-52.6 20.2-67.3 33-13.5 12.2-20.8 19-27.5 20.2-1.2 0-1.8.6-2.4.6-2.4 0-5.5-1.2-8.6-3.1-5.5-3.1-12.2-8.6-21.4-17.7-15.3-14.1-39.2-33.7-73.4-33.7h-6.1c-30.6 2.4-52.6 20.2-67.3 33-13.5 12.2-20.8 19-27.5 20.2-1.2 0-1.8.6-2.4.6-2.4 0-5.5-1.2-8.6-3.1-1.2-.6-2.4-1.2-3.7-1.8-4.9-3.1-10.4-8.6-18.4-15.3-15.3-14.1-39.2-33.7-73.4-33.7-12.9 0-25.1 11.6-25.1 25.1s12.2 25.1 25.1 24.5c16.5 0 25.7 8 39.8 20.8 14.1 12.9 33 33 63.6 33h5.5c27.5-2.4 44.7-20.8 58.1-33 8.6-8 15.9-14.1 23.9-17.1 1.8-.6 3.1-1.2 4.9-1.8 1.8-.6 3.7-.6 5.5-1.2 1.8 0 3.7-.6 6.1-.6 16.5 0 25.7 8 39.8 20.8 3.7 3.1 7.3 6.7 11.6 11 12.9 11 28.802 22.6 52 22.6h5.5c27.5-2.4 44.7-20.8 58.102-33 8.6-8 15.9-14.1 23.9-17.1 1.8-.6 3.1-1.2 4.9-1.8s3.7-.6 5.5-1.2c1.8 0 3.7-.6 6.1-.6 12.9 0 25.1-11.6 25.1-24.5-.102-12.9-12.3-25.1-25.8-25.1z"/></svg>