<svg xmlns="http://www.w3.org/2000/svg" viewBox="0 0 477.443 477.443" fill="#3A93EA"><path d="M0 395.95h407.526V314.84H0v81.107zM417.55 395.95h50.16V314.84h-50.16v81.107zM423.214 212.243c13.258 11.16 19.655 22.484 19.03 33.66-.96 17.273-18.46 29.157-18.64 29.28l4.617 6.957c.863-.57 21.135-14.24 22.37-35.71.806-13.972-6.6-27.612-21.98-40.577-13.257-11.17-19.654-22.492-19.028-33.636.975-17.216 18.46-29.043 18.64-29.157l-4.618-6.974c-.845.57-21.11 14.176-22.345 35.587-.822 13.95 6.575 27.605 21.954 40.57zM440.83 169.357c3.08 18.005 20.264 27.507 20.98 27.914l3.99-7.355c-.138-.073-14.323-7.917-16.73-21.955-1.625-9.65 2.667-20.2 12.795-31.36 12.868-14.168 17.785-26.654 14.672-37.13-4.056-13.543-19.915-17.803-20.59-17.973l-2.105 8.096c.13.033 12.022 3.34 14.688 12.282 2.195 7.364-2.252 17.436-12.843 29.117-11.948 13.158-16.94 26.066-14.858 38.365z" fill="#010002"/></svg>