<svg xmlns="http://www.w3.org/2000/svg" viewBox="0 0 306.404 306.404" fill="#3A93EA"><path d="M264.186 100.313H222.36c-17.046-23.644-44.508-37.747-73.493-37.747-30.66 0-58.976 15.316-75.81 40.994H42.223C18.94 103.56 0 122.5 0 145.772v14.87c0 23.268 18.94 42.196 42.223 42.196h30.834c16.823 25.683 45.14 41 75.81 41 31.557 0 61.282-16.932 77.654-44.236h37.672c23.285 0 42.213-18.94 42.213-42.213v-14.86c-.006-23.29-18.93-42.217-42.22-42.217zm-138.02 25.052L110.15 181.86h-8.47L94.52 152.22c-1.56-6.375-2.556-11.096-3.253-15.452-.995 5.03-2.165 9.818-3.79 15.48l-8.094 29.62h-8.47l-.102-.44-14.418-56.778h8.855l.114.44 6.658 28.37c1.43 6.06 2.71 11.918 3.666 16.797.984-5.047 2.513-10.818 4.117-16.894l7.6-28.706h8.468l.114.44 6.815 28.458c1.305 5.504 2.61 11.26 3.486 16.502 1.028-4.95 2.312-10.062 3.655-15.425l.31-1.263 7.51-28.707h8.61l-.203.705zm12.775 56.496h-8.457v-41.417h8.458v41.418zm-.49-48.62c-.956.99-2.343 1.53-3.904 1.53-2.845 0-4.982-2.177-4.982-5.065 0-2.937 2.208-5.15 5.15-5.15 2.927 0 5.065 2.158 5.065 5.15.042 1.344-.426 2.606-1.33 3.536zm163.418 24.15c0 20.76-16.9 37.666-37.682 37.666l-73.982.016c-15.3 0-28.74 0-35.756-.354 7.06-3.33 18.128-8.795 18.128-18.667v-33.52c0-20.777 16.9-37.676 37.687-37.676h53.923c20.777 0 37.682 16.9 37.682 37.676v14.86z" fill="#010002"/><path fill="#010002" d="M192.733 180.61h8.083v-24.248h20.282v-6.88h-20.282v-16.66h21.952v-6.957h-30.035M229.202 140.98h8.137v39.63H229.2zM233.265 125.784c-2.817 0-4.95 2.127-4.95 4.95 0 2.774 2.056 4.868 4.803 4.868 1.5 0 2.834-.522 3.753-1.474.855-.897 1.306-2.1 1.257-3.4 0-2.866-2.034-4.944-4.862-4.944z"/></svg>